<mxfile host="app.diagrams.net" modified="2024-02-19T11:19:19.906Z" agent="Mozilla/5.0 (X11; Ubuntu; Linux x86_64; rv:122.0) Gecko/20100101 Firefox/122.0" version="23.1.5" etag="7xQXev6oSqA_fLounBR4" type="github">
  <diagram name="第 1 页" id="JXPv5diWScLBqXopECfE">
    <mxGraphModel>
      <root>
        <mxCell id="0" />
        <mxCell id="1" parent="0" />
      </root>
    </mxGraphModel>
  </diagram>
</mxfile>
